{
  "accessors": [
    {
      "bufferView": 2,
      "componentType": 5126,
      "count": 65532,
      "max": [
        3.2540841102600098,
        1.0374798774719238,
        2.4744110107421875
      ],
      "min": [
        0.0,
        0.0,
        0.0
      ],
      "type": "VEC3"
    },
    {
      "bufferView": 2,
      "byteOffset": 786384,
      "componentType": 5126,
      "count": 65532,
      "max": [
        0.9999897480010986,
        0.9984646439552307,
        0.9999984502792358
      ],
      "min": [
        -0.9999984502792358,
        -0.9999989867210388,
        -0.9999978542327881
      ],
      "type": "VEC3"
    },
    {
      "bufferView": 1,
      "componentType": 5126,
      "count": 65532,
      "max": [
        0.9950090050697327,
        0.9996209740638733
      ],
      "min": [
        0.0010779999429360032,
        0.002266000024974346
      ],
      "type": "VEC2"
    },
    {
      "bufferView": 0,
      "componentType": 5125,
      "count": 333699,
      "type": "SCALAR"
    },
    {
      "bufferView": 2,
      "byteOffset": 1572768,
      "componentType": 5126,
      "count": 65532,
      "max": [
        3.2509820461273193,
        1.0407485961914063,
        2.471796989440918
      ],
      "min": [
        0.008081912994384766,
        0.027911663055419922,
        0.0004601478576660156
      ],
      "type": "VEC3"
    },
    {
      "bufferView": 2,
      "byteOffset": 2359152,
      "componentType": 5126,
      "count": 65532,
      "max": [
        0.9999970197677612,
        1.0,
        0.9999890923500061
      ],
      "min": [
        -0.9999992251396179,
        -0.9999998807907104,
        -0.9999978542327881
      ],
      "type": "VEC3"
    },
    {
      "bufferView": 1,
      "byteOffset": 524256,
      "componentType": 5126,
      "count": 65532,
      "max": [
        0.9977189898490906,
        0.9988309741020203
      ],
      "min": [
        0.0034600000362843275,
        0.0037899999879300594
      ],
      "type": "VEC2"
    },
    {
      "bufferView": 0,
      "byteOffset": 1334796,
      "componentType": 5125,
      "count": 324600,
      "type": "SCALAR"
    },
    {
      "bufferView": 2,
      "byteOffset": 3145536,
      "componentType": 5126,
      "count": 14024,
      "max": [
        3.11445689201355,
        0.7571725845336914,
        2.3299968242645264
      ],
      "min": [
        0.15810108184814453,
        0.46057558059692383,
        0.13271713256835938
      ],
      "type": "VEC3"
    },
    {
      "bufferView": 2,
      "byteOffset": 3313824,
      "componentType": 5126,
      "count": 14024,
      "max": [
        0.9999086260795593,
        0.44927680492401123,
        0.9999472498893738
      ],
      "min": [
        -0.9999375343322754,
        -0.9999998807907104,
        -0.9995362162590027
      ],
      "type": "VEC3"
    },
    {
      "bufferView": 1,
      "byteOffset": 1048512,
      "componentType": 5126,
      "count": 14024,
      "max": [
        0.9958410263061523,
        0.9990440011024475
      ],
      "min": [
        0.01815900020301342,
        0.0044189998880028725
      ],
      "type": "VEC2"
    },
    {
      "bufferView": 0,
      "byteOffset": 2633196,
      "componentType": 5125,
      "count": 52011,
      "type": "SCALAR"
    }
  ],
  "asset": {
    "extras": {
      "author": "Santa Cruz Museum of Art and History (https://sketchfab.com/santacruzmah)",
      "license": "CC-BY-4.0 (http://creativecommons.org/licenses/by/4.0/)",
      "source": "https://sketchfab.com/3d-models/cement-bonsai-pot-eee6bdfb729c4ea78a8b258c331f09ba",
      "title": "Cement Bonsai Pot"
    },
    "generator": "Sketchfab-12.65.0",
    "version": "2.0"
  },
  "bufferViews": [
    {
      "buffer": 0,
      "byteLength": 2841240,
      "name": "floatBufferViews",
      "target": 34963
    },
    {
      "buffer": 0,
      "byteLength": 1160704,
      "byteOffset": 2841240,
      "byteStride": 8,
      "name": "floatBufferViews",
      "target": 34962
    },
    {
      "buffer": 0,
      "byteLength": 3482112,
      "byteOffset": 4001944,
      "byteStride": 12,
      "name": "floatBufferViews",
      "target": 34962
    }
  ],
  "buffers": [
    {
      "byteLength": 7484056,
      "uri": "scene.bin"
    }
  ],
  "images": [
    {
      "uri": "textures/bonsai-pot_baseColor.jpeg"
    }
  ],
  "materials": [
    {
      "doubleSided": true,
      "name": "bonsai-pot",
      "pbrMetallicRoughness": {
        "baseColorTexture": {
          "index": 0
        },
        "metallicFactor": 0.0
      }
    }
  ],
  "meshes": [
    {
      "name": "Object_0",
      "primitives": [
        {
          "attributes": {
            "NORMAL": 1,
            "POSITION": 0,
            "TEXCOORD_0": 2
          },
          "indices": 3,
          "material": 0,
          "mode": 4
        }
      ]
    },
    {
      "name": "Object_1",
      "primitives": [
        {
          "attributes": {
            "NORMAL": 5,
            "POSITION": 4,
            "TEXCOORD_0": 6
          },
          "indices": 7,
          "material": 0,
          "mode": 4
        }
      ]
    },
    {
      "name": "Object_2",
      "primitives": [
        {
          "attributes": {
            "NORMAL": 9,
            "POSITION": 8,
            "TEXCOORD_0": 10
          },
          "indices": 11,
          "material": 0,
          "mode": 4
        }
      ]
    }
  ],
  "nodes": [
    {
      "children": [
        1
      ],
      "matrix": [
        1.0,
        0.0,
        0.0,
        0.0,
        0.0,
        -1.0,
        -4.440892098500626e-16,
        0.0,
        0.0,
        4.440892098500626e-16,
        -1.0,
        0.0,
        0.0,
        -11.019291877746582,
        1.1537201404571509,
        1.0
      ],
      "name": "Sketchfab_model"
    },
    {
      "children": [
        2
      ],
      "matrix": [
        1.0,
        0.0,
        0.0,
        0.0,
        0.0,
        1.0,
        0.0,
        0.0,
        0.0,
        0.0,
        1.0,
        0.0,
        -2.9984049797058105,
        -6.60687780380249,
        -6.169992923736572,
        1.0
      ],
      "name": "bonsai-pot.obj.cleaner.materialmerger.gles"
    },
    {
      "children": [
        3,
        4,
        5
      ],
      "name": "Object_2"
    },
    {
      "mesh": 0,
      "name": "Object_3"
    },
    {
      "mesh": 1,
      "name": "Object_4"
    },
    {
      "mesh": 2,
      "name": "Object_5"
    }
  ],
  "samplers": [
    {
      "magFilter": 9729,
      "minFilter": 9987,
      "wrapS": 10497,
      "wrapT": 10497
    }
  ],
  "scene": 0,
  "scenes": [
    {
      "name": "Sketchfab_Scene",
      "nodes": [
        0
      ]
    }
  ],
  "textures": [
    {
      "sampler": 0,
      "source": 0
    }
  ]
}
