<svg version="1.1" id="Layer_1" xmlns="http://www.w3.org/2000/svg" xmlns:xlink="http://www.w3.org/1999/xlink" x="0px" y="0px"
	 width="100%" viewBox="0 0 352 352" enable-background="new 0 0 352 352" xml:space="preserve">
<path fill="#000000" opacity="1.000000" stroke="none" 
	d="
M62.973396,199.943649 
	C62.900463,203.180038 61.830357,203.932693 58.266125,203.339661 
	C53.065723,202.474411 47.499008,201.555222 42.396431,203.919556 
	C39.328625,205.341034 36.233959,206.522339 33.025555,207.551865 
	C29.053453,208.826462 26.997318,211.712402 27.847507,215.938766 
	C28.372042,218.546265 27.453775,220.229828 25.860291,222.134827 
	C23.375744,225.105057 20.287601,227.658966 20.141809,232.247223 
	C20.064066,234.693909 17.428654,235.513351 15.141753,234.512085 
	C13.471162,233.780670 11.724702,233.951248 11.084373,235.113113 
	C8.229839,240.292572 2.271807,243.980713 3.117028,250.954239 
	C3.320409,252.632233 3.173699,253.901642 1.272092,254.841034 
	C1.000000,170.380600 1.000000,85.761200 1.000000,1.070899 
	C118.220520,1.070899 235.441101,1.070899 353.000000,1.070899 
	C353.000000,60.020462 353.000000,119.041573 353.000000,178.531342 
	C351.294159,178.324677 349.583984,177.694366 348.519501,176.014008 
	C346.402191,172.671799 343.935730,169.946426 339.418030,170.157181 
	C338.430389,170.203262 337.270081,169.318161 336.398987,168.605591 
	C332.935822,165.772751 329.439758,163.840332 325.557098,167.695465 
	C322.112061,165.338867 320.386993,162.500443 320.931305,158.713867 
	C321.252686,156.478424 320.013275,155.856186 318.385895,155.142120 
	C314.585754,153.474609 311.377838,151.420853 309.242676,147.375305 
	C306.762817,142.676651 302.205139,139.997879 296.935913,138.701218 
	C293.827667,137.936340 291.712982,141.012787 288.442230,140.459335 
	C286.582581,140.144669 284.554443,140.419968 282.744141,139.490021 
	C280.520416,138.347717 278.714661,138.301559 276.339966,139.858597 
	C272.508850,142.370605 268.862030,138.148697 264.812286,139.266068 
	C273.329590,131.080063 283.145020,134.145813 293.188660,134.661926 
	C293.716431,133.401642 293.848724,131.601913 295.528870,129.988495 
	C299.395996,126.274879 297.428589,121.469566 295.989685,117.072243 
	C292.505615,106.424683 282.409943,101.606972 275.294312,94.221733 
	C273.400208,92.255844 268.891418,91.446663 265.278900,92.050110 
	C263.692963,92.315025 262.300842,92.820534 261.831848,90.522575 
	C262.130127,90.184593 262.373962,89.662819 262.766754,89.499794 
	C269.441833,86.729126 270.196014,83.888794 264.173248,79.842331 
	C257.831177,75.581329 254.237976,68.718124 247.906128,64.567146 
	C243.674454,61.792973 240.873444,56.483807 234.157898,59.352962 
	C231.936646,60.301964 230.083176,56.843426 228.861938,54.783714 
	C225.307617,48.788971 219.992188,45.740612 213.279221,45.081833 
	C209.130905,44.674736 206.065979,41.732330 202.132202,40.904819 
	C194.585342,39.317268 187.428329,36.035881 179.570572,35.753765 
	C178.389633,35.711365 177.296295,35.687126 176.149353,36.067951 
	C168.569901,38.584583 160.876953,40.651321 152.977753,41.929604 
	C148.245438,42.695408 144.927597,46.610447 140.426224,47.841236 
	C133.891769,49.627926 130.065979,54.302933 126.695297,59.730324 
	C122.860733,65.904663 116.480453,69.415695 111.015366,73.830330 
	C108.820831,75.603058 106.777519,77.472282 104.762154,79.414360 
	C102.080116,81.998886 105.155930,84.339874 105.234650,87.555038 
	C96.912109,87.804581 92.439026,92.895882 89.802444,99.806732 
	C90.613617,102.050827 93.007301,101.322998 94.022690,102.916550 
	C93.728874,105.178589 91.710938,107.830956 94.177208,109.788254 
	C96.750572,111.830536 99.499268,110.563347 102.088531,109.170685 
	C104.367271,107.945045 106.630775,107.776169 109.253746,108.709511 
	C114.436539,110.553726 119.797058,108.640930 125.093712,108.776001 
	C129.383148,108.885384 133.703674,108.148994 137.993454,107.643715 
	C139.277039,107.492531 141.065979,107.244804 141.663971,106.378815 
	C145.278946,101.143639 151.964249,100.578148 156.274887,96.465996 
	C157.089828,95.688583 158.237915,95.204613 159.304993,94.759613 
	C161.178452,93.978302 163.394897,93.115372 164.669449,95.331734 
	C166.036606,97.709160 163.799133,98.828644 162.231659,100.036499 
	C155.978104,104.855354 155.109482,107.177071 157.511307,115.050682 
	C158.558823,118.484657 156.623840,121.540977 157.095856,124.906143 
	C157.480194,127.646217 157.680374,130.117325 160.139679,131.896378 
	C162.860855,133.864883 162.049835,135.749969 159.319839,136.461258 
	C156.640976,137.159256 154.643600,139.389404 151.950470,140.015121 
	C150.644745,136.566025 154.327042,136.964645 154.899643,134.565598 
	C149.549347,132.339249 148.103882,125.363777 141.522476,123.876434 
	C138.798172,123.260757 136.592834,124.670235 134.259201,124.279198 
	C129.456360,123.474419 124.715225,122.268929 119.986496,121.078247 
	C118.866013,120.796112 117.812599,120.147560 116.625679,120.429520 
	C107.618065,122.569267 97.609062,121.101387 89.945633,128.150192 
	C87.730583,130.187592 83.815254,129.798370 81.792587,131.599869 
	C75.869270,136.875519 68.899040,139.895615 62.073620,143.536011 
	C59.170593,145.084366 56.164051,148.382156 52.774681,150.426682 
	C50.969166,151.515778 49.499844,153.024811 49.104198,155.487106 
	C48.369022,160.062485 50.028309,162.001144 54.747383,161.470367 
	C56.062325,161.322479 57.367340,160.938583 58.678490,160.930878 
	C63.752834,160.901001 69.155586,159.567947 73.197914,164.799545 
	C71.421120,167.158096 68.988571,167.772507 65.792618,166.924072 
	C59.301029,165.200714 49.641857,172.072601 49.151985,178.826828 
	C48.903999,182.246048 48.556686,185.335251 45.634861,187.747757 
	C43.905312,189.175827 43.798012,191.411621 45.408035,193.116653 
	C48.003300,195.865036 50.436787,198.783890 55.019676,198.391876 
	C57.398430,198.188400 59.883907,199.232544 62.658585,199.848541 
	C62.995995,199.983978 62.973396,199.943649 62.973396,199.943649 
z"/>
<path fill="#000000" opacity="1.000000" stroke="none" 
	d="
M1.000000,256.468658 
	C4.214040,255.573151 7.143589,257.348206 9.214629,258.901062 
	C11.479492,260.599274 12.914272,260.027283 14.543446,259.247406 
	C15.640451,260.072235 15.647015,260.855774 15.436007,261.708862 
	C14.126111,267.004913 15.581676,269.440704 20.833889,269.231812 
	C25.245090,269.056396 29.204636,270.196716 33.303627,271.337769 
	C37.423546,272.484680 41.588028,271.638031 45.669506,270.808350 
	C48.361904,270.261047 50.882038,268.497498 53.780102,270.376007 
	C54.658871,270.945648 55.889462,270.214905 56.224785,269.217682 
	C57.546017,265.288361 60.923218,265.060364 63.993740,265.353546 
	C69.612358,265.890015 75.247086,264.173065 80.797951,265.614655 
	C84.042328,266.457214 85.368629,262.804169 88.887962,262.911224 
	C94.573792,263.084106 100.348557,264.355286 106.284340,263.230042 
	C107.302803,259.752441 105.135361,258.539551 102.625587,257.312744 
	C100.662384,256.353119 98.315941,254.663971 100.057434,252.422867 
	C101.376251,250.725739 104.043510,248.128372 106.433327,252.036026 
	C107.100105,253.126266 108.385147,253.416183 109.561485,253.103439 
	C115.893143,251.420013 122.897934,251.705307 128.160507,246.861710 
	C129.138626,245.961456 130.192200,246.008499 131.405869,246.190720 
	C136.108124,246.896729 140.823959,247.512360 145.811676,248.199799 
	C145.340485,251.808060 143.391357,254.005249 140.202469,255.203842 
	C132.357315,258.152557 127.109344,263.974609 122.351715,270.598267 
	C118.819229,275.516327 113.798615,279.195129 111.686104,285.381897 
	C110.843544,287.849457 106.787376,287.615143 103.975113,287.953583 
	C99.194420,288.528961 94.409660,289.088470 89.648651,289.801819 
	C87.314705,290.151520 84.838104,290.778534 84.388451,293.607178 
	C83.982315,296.162109 86.147812,296.939423 87.990891,297.719086 
	C89.708870,298.445770 90.282227,299.608032 89.516411,301.287506 
	C86.015503,308.965179 90.342354,314.862946 94.281944,320.562927 
	C96.527840,323.812408 97.190994,328.733032 102.857780,329.139709 
	C105.651169,329.340210 107.766792,329.360138 109.383972,326.993439 
	C110.799126,324.922394 112.610573,323.241486 115.174408,324.006866 
	C120.745468,325.669983 126.895401,326.028076 131.331894,330.500336 
	C133.319321,332.503754 135.722839,332.327209 137.771317,331.224731 
	C140.482010,329.765808 142.646255,329.731964 145.081451,331.696503 
	C146.750732,333.043213 148.990433,333.395813 150.521561,331.585571 
	C154.909668,326.397583 161.371643,326.578217 166.913315,326.221985 
	C179.691879,325.400421 192.595688,325.366577 205.370575,326.204315 
	C210.676315,326.552185 217.076904,326.365814 221.067184,331.827454 
	C222.196655,333.373383 224.221756,333.084045 225.606140,331.961487 
	C228.323959,329.757812 230.880310,329.800964 233.872955,331.463501 
	C235.443542,332.336060 238.005661,332.626404 239.028717,331.089386 
	C242.585449,325.745667 248.834076,326.885651 253.624481,324.598907 
	C256.779266,323.092957 259.807007,323.699188 262.279114,327.120117 
	C265.016388,330.907959 273.552979,329.049744 274.689850,324.592499 
	C275.187225,322.642487 276.531494,321.535370 277.492493,320.032288 
	C281.628174,313.563690 286.484741,307.170593 281.500336,299.482880 
	C282.339203,297.673218 283.676483,297.640900 284.617279,297.009155 
	C287.479889,295.086884 287.751923,292.045258 284.726227,290.815826 
	C280.010101,288.899567 276.938446,284.035980 271.336426,283.769684 
	C269.350647,283.675262 267.944000,282.278320 268.211456,280.008148 
	C268.592133,276.777252 266.537659,275.347748 263.999329,274.724426 
	C253.234543,272.081085 245.002579,265.256836 236.702118,258.514771 
	C236.324432,258.208008 236.070740,257.720490 235.662674,257.483459 
	C228.997711,253.611633 228.994186,253.617691 233.745789,247.285049 
	C233.629257,247.004837 233.566040,246.511856 233.379013,246.459274 
	C232.298111,246.155426 231.188019,245.955536 230.292480,245.764160 
	C228.785141,246.997696 229.424408,248.462555 229.139786,249.704086 
	C228.645447,251.860519 228.207489,254.290741 225.153473,253.626511 
	C221.983307,252.937042 222.132019,250.376694 222.789780,248.045212 
	C223.694427,244.838669 226.242508,242.641251 228.751328,240.844406 
	C237.750549,234.399078 239.294189,226.064529 235.731339,216.167709 
	C235.339890,215.080353 235.063431,213.947006 234.810043,212.817841 
	C234.749146,212.546448 234.993927,212.206467 235.102646,211.901306 
	C235.566742,211.265152 236.281693,211.101898 236.869675,211.426819 
	C241.619904,214.051895 246.414200,215.453201 251.795532,213.109741 
	C253.259583,212.472198 255.080139,212.930038 256.521637,214.034058 
	C262.214447,218.394012 268.007294,218.271317 275.032532,216.697510 
	C280.727173,215.421768 285.890747,211.523926 292.481964,212.657410 
	C292.528381,208.184647 295.024719,208.446030 298.174164,209.783005 
	C303.605774,212.088806 308.774780,209.031052 314.090820,208.810257 
	C314.922821,208.775696 315.095276,207.724594 315.322784,206.868423 
	C316.199554,203.568741 320.969025,201.263306 323.111115,203.703918 
	C327.210632,208.374741 332.573334,207.033234 337.089050,207.076172 
	C341.603821,207.119110 344.955017,209.588562 349.020508,210.175201 
	C350.181732,210.342758 351.238495,210.733963 352.688171,210.119766 
	C353.000000,257.631439 353.000000,305.262848 353.000000,352.947144 
	C235.788666,352.947144 118.577286,352.947144 1.000000,352.947144 
	C1.000000,320.980042 1.000000,288.958679 1.000000,256.468658 
M252.250687,239.348465 
	C253.898834,239.519485 255.572235,239.567383 257.187500,239.898697 
	C258.599121,240.188217 260.503967,240.434875 260.278107,242.444672 
	C260.036469,244.595245 258.326782,244.748596 256.475281,244.508575 
	C250.399338,243.720871 245.431732,248.159668 239.396347,248.274857 
	C247.424225,246.191711 255.307922,245.373352 263.161133,248.513687 
	C263.653870,248.710739 264.457733,248.295761 265.057617,248.031189 
	C268.289001,246.606018 271.086700,247.619431 273.047150,250.122849 
	C274.571686,252.069656 276.037689,252.536621 278.166901,251.714935 
	C282.037445,250.221176 285.659210,251.379211 289.153046,252.931854 
	C291.608673,254.023117 294.099457,254.962662 296.758148,255.082825 
	C300.382324,255.246582 303.128448,252.784454 302.313324,249.754456 
	C301.349121,246.170425 299.359009,241.750626 295.742157,240.397324 
	C290.976501,238.614227 288.410278,231.549072 281.769196,234.454498 
	C278.413177,231.237823 274.624481,231.875381 270.635925,232.977631 
	C268.732208,233.503723 266.853729,232.951508 264.915405,232.008362 
	C259.602966,229.423447 252.041473,230.178741 249.132889,233.223740 
	C248.085327,234.320435 247.137817,235.487732 247.704468,237.205872 
	C248.346237,239.151749 249.694962,239.730469 252.250687,239.348465 
z"/>
<path fill="#000000" opacity="1.000000" stroke="none" 
	d="
M233.816223,173.052261 
	C238.951996,171.286804 243.189987,169.531067 248.539764,173.216156 
	C251.772018,175.442612 257.201172,174.768570 261.295685,171.876923 
	C263.217896,170.519409 265.124084,168.495636 268.354218,169.799789 
	C267.097992,174.362518 266.743561,178.885834 270.912628,182.943954 
	C266.954926,184.141586 263.979736,185.254440 260.221893,182.967300 
	C256.495911,180.699585 251.769638,181.094772 247.513229,181.451248 
	C240.137604,182.068970 233.728561,185.805756 227.187363,188.927917 
	C226.279099,189.361450 225.336838,190.645096 225.209274,191.637848 
	C224.563721,196.662582 222.215698,196.498474 218.812683,194.066605 
	C217.875946,193.397217 216.804367,192.782761 215.702927,192.498444 
	C205.602982,189.891403 195.960678,185.470505 185.483658,184.423401 
	C179.124146,183.787811 174.798645,179.962784 170.764832,175.797806 
	C168.398117,173.354126 169.083160,169.902985 172.119370,168.684235 
	C178.122086,166.274704 179.728241,162.656662 177.381897,156.759277 
	C176.527344,154.611435 176.981384,152.451141 179.554703,151.260086 
	C183.293701,152.761658 185.151520,156.350922 187.732590,159.065369 
	C191.542160,163.071777 195.364624,164.029739 200.070648,160.838516 
	C202.395569,159.261963 204.869339,157.904922 207.753632,156.159363 
	C210.487442,161.848587 214.625473,166.142365 220.635605,168.381348 
	C221.573120,168.730591 222.494812,169.625809 222.311401,170.662918 
	C221.896408,173.009613 221.838379,174.970276 224.791550,175.527832 
	C227.673050,176.071854 227.463806,173.118423 228.432648,172.086411 
	C230.645142,171.376968 231.663071,173.825424 233.816223,173.052261 
z"/>
<path fill="#000000" opacity="1.000000" stroke="none" 
	d="
M122.301605,220.153183 
	C119.346855,220.702057 116.693779,222.177734 113.643806,219.718399 
	C116.801956,217.689438 119.790268,215.899277 123.401886,216.885910 
	C128.012024,218.145309 132.669647,217.669327 137.311096,217.821243 
	C141.314011,217.952271 145.223282,217.828766 142.920624,212.078842 
	C144.716568,211.021576 146.499039,211.220779 147.615128,211.839615 
	C154.280045,215.535080 160.684143,212.981049 166.821960,210.847794 
	C172.531250,208.863495 182.809265,211.842880 188.141235,215.832169 
	C182.589981,220.249969 179.801071,227.068329 174.052872,231.069687 
	C171.557495,229.791656 173.754913,227.053329 171.459305,226.081284 
	C169.561737,226.322250 170.236115,228.002914 170.055725,229.145111 
	C169.150436,234.876709 165.443268,238.561066 161.010986,241.750046 
	C159.130447,243.103088 157.796204,241.823959 156.642700,240.703903 
	C153.614227,237.763214 150.701569,235.548248 145.871552,235.558731 
	C142.157242,235.566788 139.709579,231.721161 138.939072,228.090698 
	C137.825821,222.845322 131.241974,218.334702 125.925369,219.908340 
	C124.790405,220.244263 123.798401,220.835129 122.301605,220.153183 
z"/>
<path fill="#000000" opacity="1.000000" stroke="none" 
	d="
M226.778107,159.247894 
	C223.707016,156.894745 222.740204,154.204697 224.626694,151.177887 
	C226.141708,148.747086 224.951859,146.296417 225.314896,143.884109 
	C225.976059,139.490662 227.456360,138.795029 231.582047,139.997314 
	C239.789795,142.389191 248.051041,143.439301 255.670624,138.071411 
	C257.591675,136.718063 259.104736,137.549622 260.703064,138.496521 
	C261.587189,139.020309 262.446625,139.725082 262.252625,140.834732 
	C261.900543,142.848495 259.916779,142.944763 258.505402,143.667953 
	C257.334991,144.267700 255.811676,143.277542 254.543396,144.609055 
	C253.779709,148.693314 254.231934,151.777466 259.721497,152.264282 
	C262.406403,152.502380 265.131653,153.736526 267.430481,155.720779 
	C266.652618,159.179459 264.231354,160.199142 261.148376,160.097137 
	C255.495804,159.910110 250.287399,158.113052 246.154694,154.315552 
	C243.598953,151.967148 241.772156,151.861267 239.402954,154.160248 
	C237.979965,155.541077 236.482330,156.798386 235.208847,158.371414 
	C232.966507,161.141205 230.206375,162.192047 226.778107,159.247894 
z"/>
<path fill="#000000" opacity="1.000000" stroke="none" 
	d="
M63.008751,200.003128 
	C64.643646,196.354324 67.028107,194.863449 70.851471,197.183594 
	C71.514900,197.586182 72.396164,198.006119 73.102600,197.904114 
	C81.394165,196.706726 89.746689,196.994522 98.074402,196.638046 
	C103.988464,196.384888 109.457710,192.876709 115.992844,193.876007 
	C116.378036,195.123749 116.865341,196.663071 117.327606,198.209854 
	C117.872108,200.031830 117.175079,201.521973 115.319473,201.286636 
	C111.746590,200.833542 109.778038,202.862518 107.260231,204.832764 
	C104.967773,206.626678 102.257385,208.938797 98.701279,207.834579 
	C97.478622,214.348434 89.800888,217.431061 84.844917,213.417526 
	C86.408409,210.087784 89.654045,212.254364 91.910751,211.301407 
	C92.150757,207.409836 86.770576,201.739166 82.784073,202.024796 
	C78.930489,202.300888 75.063484,201.909164 71.312538,204.060669 
	C67.762207,206.097107 65.998009,201.916977 63.228035,200.171478 
	C62.973396,199.943649 62.995995,199.983978 63.008751,200.003128 
z"/>
<path fill="#000000" opacity="1.000000" stroke="none" 
	d="
M118.807220,168.831894 
	C120.933563,167.384048 122.059746,165.592606 123.296097,163.795349 
	C125.794518,160.163467 129.858398,159.526642 133.644669,162.000290 
	C132.479340,165.871979 129.292313,168.936172 129.967682,173.795761 
	C130.627335,178.542236 132.371155,182.397156 135.281281,185.843567 
	C138.446259,189.591766 137.913528,192.465942 134.158432,195.017715 
	C132.626572,194.635895 132.721588,193.410034 132.285034,192.593109 
	C129.487396,187.357773 128.151016,181.706253 120.304207,180.212387 
	C114.279167,179.065353 114.318504,175.541077 118.807220,168.831894 
z"/>
<path fill="#000000" opacity="1.000000" stroke="none" 
	d="
M144.206329,148.107452 
	C135.801865,148.737671 134.379974,147.977951 131.654556,141.593674 
	C137.627274,136.272736 143.857346,140.522232 151.089874,140.439026 
	C148.310791,143.555130 146.385651,145.713730 144.206329,148.107452 
z"/>
<path fill="#000000" opacity="1.000000" stroke="none" 
	d="
M199.241333,101.606476 
	C201.850937,104.416962 201.966690,107.534698 199.824707,110.145004 
	C197.649551,112.795746 189.056763,114.525360 186.926285,113.322128 
	C185.964478,112.778923 185.499863,111.983536 185.584900,110.893852 
	C185.677094,109.712578 186.539642,109.159233 187.523071,108.933243 
	C192.212753,107.855537 195.624924,104.841896 199.241333,101.606476 
z"/>
<path fill="#000000" opacity="1.000000" stroke="none" 
	d="
M212.860748,94.840240 
	C215.786530,96.323540 216.363953,98.466606 214.892883,100.757347 
	C212.657532,104.238274 209.624710,106.105110 205.150497,103.898445 
	C205.194458,100.506691 207.737457,98.040146 208.538803,94.926353 
	C208.941360,93.362068 211.109299,94.197105 212.860748,94.840240 
z"/>
<path fill="#000000" opacity="1.000000" stroke="none" 
	d="
M71.715698,225.720825 
	C73.740707,225.069794 75.676788,225.094345 75.717606,227.280960 
	C75.761993,229.659149 77.789970,230.971832 78.149544,233.326187 
	C76.325180,234.952103 74.121590,233.923126 72.140747,233.972229 
	C70.060181,234.023788 67.969978,233.686386 65.432587,233.482727 
	C67.032074,230.436783 70.280304,228.955765 71.715698,225.720825 
z"/>
<path fill="#000000" opacity="1.000000" stroke="none" 
	d="
M274.091370,176.385712 
	C275.817505,168.670822 280.917572,167.589844 288.575378,173.667145 
	C283.964233,173.419266 280.632721,174.535629 278.096100,178.000931 
	C276.970276,179.538895 274.746399,179.352982 274.091370,176.385712 
z"/>
<path fill="#000000" opacity="1.000000" stroke="none" 
	d="
M278.385437,157.481598 
	C278.791351,159.739929 275.843201,162.203339 273.214661,161.785751 
	C271.529114,161.517990 269.577484,161.379868 267.944458,159.255615 
	C271.228088,157.279892 274.458038,156.488907 278.385437,157.481598 
z"/>
<path fill="#000000" opacity="1.000000" stroke="none" 
	d="
M241.673920,165.311462 
	C239.206848,163.170761 240.428543,161.921356 242.414978,161.221695 
	C244.039337,160.649612 246.195160,160.801483 246.231552,162.912918 
	C246.274185,165.386353 244.262146,166.013809 241.673920,165.311462 
z"/>
<path fill="#000000" opacity="1.000000" stroke="none" 
	d="
M137.666992,100.802338 
	C138.956726,101.759659 140.473190,102.691994 139.502655,104.042542 
	C137.966614,106.179985 135.755127,105.059731 133.583038,104.821129 
	C133.500702,101.887741 134.796448,100.699867 137.666992,100.802338 
z"/>
<path fill="#000000" opacity="1.000000" stroke="none" 
	d="
M67.034958,209.890167 
	C68.039558,211.961624 66.928192,212.230255 65.596863,212.047287 
	C63.299801,211.731598 60.986805,211.321625 60.288113,208.256088 
	C63.006367,206.906219 64.743385,209.054459 67.034958,209.890167 
z"/>
<path fill="#000000" opacity="1.000000" stroke="none" 
	d="
M198.522583,92.267197 
	C200.442703,94.033791 201.063446,95.801582 198.941010,97.389496 
	C197.396393,98.545097 196.517105,97.162231 195.906082,96.019150 
	C194.597107,93.570320 195.548599,92.313011 198.522583,92.267197 
z"/>
<path fill="#000000" opacity="1.000000" stroke="none" 
	d="
M78.261490,212.324173 
	C79.871880,212.537903 81.314308,212.509262 81.676193,214.338242 
	C80.077164,216.596985 77.857742,216.560822 76.247856,214.877945 
	C74.806038,213.370758 76.622383,212.742828 78.261490,212.324173 
z"/>
</svg>