<svg width="46" height="45" viewBox="0 0 46 45" fill="none" xmlns="http://www.w3.org/2000/svg">
  <path d="M2.216 12.488H43.88V16.088H2.216V12.488ZM21.08 0.727998H24.872V44.84H21.08V0.727998ZM20.264 14.312L23.384 15.416C22.264 17.912 20.952 20.344 19.448 22.712C17.944 25.08 16.312 27.336 14.552 29.48C12.792 31.592 10.936 33.528 8.984 35.288C7.064 37.016 5.08 38.488 3.032 39.704C2.84 39.384 2.568 39.048 2.216 38.696C1.896 38.312 1.576 37.944 1.256 37.592C0.936 37.24 0.632 36.936 0.344 36.68C2.328 35.592 4.28 34.248 6.2 32.648C8.152 31.048 9.992 29.256 11.72 27.272C13.48 25.256 15.08 23.16 16.52 20.984C17.992 18.776 19.24 16.552 20.264 14.312ZM25.592 14.408C26.648 16.552 27.912 18.712 29.384 20.888C30.856 23.032 32.472 25.096 34.232 27.08C36.024 29.064 37.88 30.856 39.8 32.456C41.72 34.056 43.64 35.4 45.56 36.488C45.272 36.712 44.952 37.016 44.6 37.4C44.248 37.752 43.912 38.12 43.592 38.504C43.272 38.888 43.016 39.256 42.824 39.608C40.872 38.36 38.936 36.872 37.016 35.144C35.096 33.384 33.24 31.448 31.448 29.336C29.688 27.192 28.04 24.952 26.504 22.616C25 20.248 23.672 17.88 22.52 15.512L25.592 14.408Z" fill="#A78A7F"></path>
</svg>
